Coordinates
version=1
nRows=5
nColumns=40
inDegrees=yes

Units are S.I. units (second, meters, Newtons, ...)
If the header above contains a line with 'inDegrees', this indicates whether rotational values are in degrees (yes) or radians (no).

endheader
time	pelvis_tilt	pelvis_list	pelvis_rotation	pelvis_tx	pelvis_ty	pelvis_tz	hip_flexion_r	hip_adduction_r	hip_rotation_r	knee_angle_r	knee_angle_r_beta	ankle_angle_r	subtalar_angle_r	mtp_angle_r	hip_flexion_l	hip_adduction_l	hip_rotation_l	knee_angle_l	knee_angle_l_beta	ankle_angle_l	subtalar_angle_l	mtp_angle_l	lumbar_extension	lumbar_bending	lumbar_rotation	arm_flex_r	arm_add_r	arm_rot_r	elbow_flex_r	pro_sup_r	wrist_flex_r	wrist_dev_r	arm_flex_l	arm_add_l	arm_rot_l	elbow_flex_l	pro_sup_l	wrist_flex_l	wrist_dev_l
      6.12500000	    -22.75950495	      1.27064844	      2.46389018	     -0.30868478	      0.84318019	     -1.04820904	     28.04904119	     -8.14375160	     -7.73796680	     88.89640763	      1.55153501	    -18.07728251	      0.00000000	      0.00000000	     61.62970991	      4.43064852	     -7.66462791	     73.37330247	      1.28060571	     23.48771590	      0.00000000	      0.00000000	     -2.49258044	     -3.73877798	      1.96671526	     89.84230729	    -21.30897850	     23.36112550	     50.17949403	     85.53746383	      0.00000000	      0.00000000	     89.91024413	    -19.32699936	     28.39881998	     51.57182081	     85.16173510	      0.00000000	      0.00000000
      6.13000000	    -22.57766872	      1.26419856	      2.49607636	     -0.30837759	      0.84523594	     -1.04834072	     27.88080506	     -8.19879178	     -7.84939242	     88.81308627	      1.55008077	    -18.06060363	      0.00000000	      0.00000000	     61.23360684	      4.46397868	     -7.62559017	     72.99698210	      1.27403768	     23.19919144	      0.00000000	      0.00000000	     -2.62219912	     -3.72795655	      1.90708975	     89.84257150	    -21.35172808	     23.65530544	     50.04943484	     85.50401865	      0.00000000	      0.00000000	     89.91024639	    -19.34989442	     28.63529315	     51.43558925	     85.14134361	      0.00000000	      0.00000000
      6.13500000	    -22.56144621	      1.17281679	      2.47644362	     -0.30830595	      0.84680183	     -1.04831839	     27.97838224	     -8.14341445	     -7.95079103	     88.88668071	      1.55136524	    -18.05807710	      0.00000000	      0.00000000	     61.06129356	      4.34614286	     -7.61938983	     72.72693183	      1.26932442	     23.10971445	      0.00000000	      0.00000000	     -2.58108287	     -3.62693030	      1.94311988	     89.83893906	    -21.37912267	     23.68505269	     50.01630473	     85.49298401	      0.00000000	      0.00000000	     89.90887426	    -19.35997744	     28.68548331	     51.42973921	     85.13650480	      0.00000000	      0.00000000
      6.14000000	    -22.51833694	      1.09547645	      2.45623732	     -0.30825111	      0.84862041	     -1.04829939	     28.01196531	     -8.07309286	     -8.01973491	     88.87825298	      1.55121815	    -18.06613873	      0.00000000	      0.00000000	     60.81800344	      4.26428570	     -7.58436662	     72.33693288	      1.26251765	     22.93717127	      0.00000000	      0.00000000	     -2.56877151	     -3.54915174	      1.96620942	     89.83699378	    -21.39564335	     23.81036251	     49.92634143	     85.48324488	      0.00000000	      0.00000000	     89.90828150	    -19.36469088	     28.80719815	     51.36114800	     85.13495661	      0.00000000	      0.00000000
      6.14500000	    -22.40053932	      1.08167456	      2.45579134	     -0.30797609	      0.85058736	     -1.04834175	     27.94485414	     -8.08445790	     -8.05169760	     88.84543289	      1.55064533	    -18.05673090	      0.00000000	      0.00000000	     60.48058186	      4.24758136	     -7.56395016	     71.94825984	      1.25573403	     22.70328667	      0.00000000	      0.00000000	     -2.62355083	     -3.53458659	      1.93963775	     89.83535773	    -21.42741455	     24.01775460	     49.81806187	     85.46977915	      0.00000000	      0.00000000	     89.90775880	    -19.39051027	     29.02913578	     51.22382030	     85.12751567	      0.00000000	      0.00000000
